<svg width="85" height="24" viewBox="0 0 85 24" fill="none" xmlns="http://www.w3.org/2000/svg">
<path fill-rule="evenodd" clip-rule="evenodd" d="M21.658 3.18821V3.18818H24.4V3.18821H21.658ZM21.658 3.18787C22.8152 3.16864 23.9648 2.24963 24.4 1.14001V0.446289H21.658V3.18787ZM59.4118 0.993463V0.446289H56.6699V3.18637C57.8596 3.13855 59.03 2.15042 59.4118 0.993463ZM8.59685 17.172H5.07802V8.39784H6.50449C7.60398 8.16138 8.59741 7.04578 8.59741 5.93018V8.39784H8.59766V5.93018H8.69735V5.93012H5.07802V5.92988H2.33611V5.93012H0.142578V8.39784H2.33611V19.6397H8.59766V17.172H8.59741V19.6394H6.08398C7.3215 19.6394 8.56665 18.4132 8.59685 17.172ZM2.33611 5.92569C3.56342 5.85088 4.75931 4.78509 5.07802 3.57674V0.446289H2.33611V5.92569ZM14.1778 8.39784H17.2416C18.3414 8.16183 19.3354 7.04599 19.3355 5.93012V8.39784H19.3359V5.93018H19.4422V5.93012H19.3355H11.4358V19.6397H14.1778V19.6394H11.7969C12.8071 19.6394 13.8225 18.8222 14.1778 17.8467V8.39784ZM21.658 5.93012H24.4V17.9934C24.0009 18.9028 23.0371 19.6395 22.0779 19.6395H24.4V19.6397H21.658V5.93012ZM38.273 7.60269C37.3224 6.30485 35.7961 5.65593 33.694 5.65593C31.866 5.65593 30.5042 6.29571 29.6085 7.57527V5.93012H26.8666V23.9816H29.6085V23.9807H26.877C28.2149 23.9807 29.5528 22.6668 29.6085 21.3253V17.9945C30.5042 19.2741 31.866 19.9139 33.694 19.9139C35.7961 19.9139 37.3224 19.2741 38.273 17.9945C39.2235 16.6967 39.6988 14.9602 39.6988 12.7849C39.6988 10.6097 39.2235 8.88225 38.273 7.60269ZM36.1069 16.3768C35.5585 17.0897 34.6171 17.4462 33.2827 17.4462C31.9483 17.4462 30.9978 17.0897 30.4311 16.3768C29.8827 15.6456 29.6085 14.4483 29.6085 12.7849C29.6085 11.1215 29.8827 9.93332 30.4311 9.22042C30.9978 8.48924 31.9483 8.12365 33.2827 8.12365C34.6171 8.12365 35.5585 8.48924 36.1069 9.22042C36.6735 9.93332 36.9569 11.1215 36.9569 12.7849C36.9569 14.4483 36.6735 15.6456 36.1069 16.3768ZM47.9069 19.9139C45.8414 19.9139 44.2328 19.2741 43.0812 17.9945C41.9296 16.6967 41.3538 14.9602 41.3538 12.7849C41.3538 10.6097 41.9296 8.88225 43.0812 7.60269C44.2328 6.30485 45.8414 5.65593 47.9069 5.65593C49.9725 5.65593 51.5811 6.30485 52.7327 7.60269C53.8843 8.88225 54.4601 10.6097 54.4601 12.7849C54.4601 14.9602 53.8843 16.6967 52.7327 17.9945C51.5811 19.2741 49.9725 19.9139 47.9069 19.9139ZM47.9069 17.4462C48.8758 17.4462 49.6252 17.3091 50.1553 17.0349C50.7037 16.7424 51.0967 16.2671 51.3343 15.6091C51.5903 14.9327 51.7182 13.9914 51.7182 12.7849C51.7182 11.5785 51.5903 10.6462 51.3343 9.98816C51.0967 9.31182 50.7037 8.83655 50.1553 8.56236C49.6252 8.26989 48.8758 8.12365 47.9069 8.12365C46.9381 8.12365 46.1795 8.26989 45.6312 8.56236C45.1011 8.83655 44.708 9.31182 44.4521 9.98816C44.2145 10.6462 44.0957 11.5785 44.0957 12.7849C44.0957 13.9914 44.2145 14.9327 44.4521 15.6091C44.708 16.2671 45.1011 16.7424 45.6312 17.0349C46.1795 17.3091 46.9381 17.4462 47.9069 17.4462ZM59.4118 5.93012H56.6699V19.6397H59.4118V19.6394H57.0371C58.0416 19.6394 59.0511 18.8315 59.4118 17.8634V5.93012ZM70.9408 8.39784H64.9085V17.8296C64.559 18.8126 63.5377 19.6394 62.5215 19.6394H64.9085V19.6397H62.1666V5.93012H73.6827V17.4876C73.474 18.6129 72.3354 19.6394 71.2031 19.6394H73.6827V19.6397H70.9408V8.39784ZM83.9996 17.172H84V19.6397H77.7827V8.39784H75.5891V5.93012H77.7827V5.92988H80.5246V5.93012H83.9996C83.9995 7.04599 83.0056 8.16183 81.9058 8.39784H80.5246V17.172H83.9991C83.9689 18.4132 82.7237 19.6395 81.4862 19.6395H83.9996V17.172ZM83.9996 8.39784V5.93012H84.1439L84 5.93018V8.39784H83.9996ZM80.5246 0.446289V3.37762C80.2948 4.65105 79.0614 5.81986 77.7827 5.92256V0.446289H80.5246Z" fill="#3D4650"/>
</svg>
